<svg width="20" height="18" viewBox="0 0 20 18" fill="none" xmlns="http://www.w3.org/2000/svg">
<path d="M6.17368 12.2762V11.1319H7.31802V12.2762H6.17368Z" fill="#0000C8"/>
<circle cx="7.31778" cy="11.1322" r="1.14396" fill="#FFFFFC"/>
<path d="M0.453217 7.70007H6.17381V17.9971H3.45322C1.79636 17.9971 0.453217 16.654 0.453217 14.9971V7.70007Z" fill="#0000C8"/>
<path d="M5.02957 17.9967V12.2761H19.9031V17.9967H5.02957Z" fill="#0000C8"/>
<rect x="0.453217" y="6.55591" width="5.72059" height="19.45" transform="rotate(-90 0.453217 6.55591)" fill="#0000C8"/>
<path d="M14.1823 11.1322V0.835137H14.9028C17.6643 0.835137 19.9028 3.07371 19.9028 5.83514V8.16693C19.9028 8.57584 19.6539 8.94355 19.2742 9.09541L14.1823 11.1322Z" fill="#0000C8"/>
<path d="M14.1807 6.5542L14.1823 7.69855L13.0379 7.7001L13.0364 6.55575L14.1807 6.5542Z" fill="#0000C8"/>
<circle cx="13.0383" cy="7.70001" r="1.14396" transform="rotate(179.922 13.0383 7.70001)" fill="#FFFFFC"/>
</svg>
